<?xml version="1.0" encoding="utf-8"?>
<!-- Generator: Adobe Illustrator 23.0.0, SVG Export Plug-In . SVG Version: 6.00 Build 0)  -->
<svg version="1.1" id="Layer_1" xmlns="http://www.w3.org/2000/svg" xmlns:xlink="http://www.w3.org/1999/xlink" x="0px" y="0px"
	 viewBox="0 0 24 24" style="enable-background:new 0 0 24 24;" xml:space="preserve">
<path d="M23.77,22.74l-7.61-7.61c1.36-1.56,2.19-3.65,2.19-5.94c0-5-4.07-9.17-9.17-9.17S0,4.08,0,9.19s4.07,9.17,9.17,9.17
	c2.29,0,4.38-0.83,5.94-2.19l7.61,7.61c0.1,0.1,0.31,0.21,0.52,0.21s0.31-0.1,0.52-0.21C24.08,23.47,24.08,23.05,23.77,22.74z
	 M1.46,9.19c0-4.27,3.44-7.71,7.71-7.71s7.71,3.44,7.71,7.71c0,2.08-0.83,4.07-2.29,5.52l0,0l0,0C13.24,16.07,11.26,17,9.07,17
	C4.9,16.9,1.46,13.46,1.46,9.19z"/>
</svg>
